<?xml version="1.0" encoding="UTF-8"?>
<svg id="Layer_1" data-name="Layer 1" xmlns="http://www.w3.org/2000/svg" viewBox="0 0 1116.71 1399.75">
  <path d="M531.76,390.95H18.75c-1.21,0-2.42.08-3.61.34C-3.41,395.41.3,427.95.3,427.95l77,679,32,253c5,39,62.86,38.16,62.86,38.16l345.31-.16c.47,0,3.36-.03,3.83,0,3.34.23,18.1,1,28-8,11-10,11-31.47,11-31.47V415.65c0-2.15-.33-4.31-1.06-6.34-6.61-18.37-27.48-18.37-27.48-18.37ZM447.3,1145.95c-25,92-65,129-65,129,0,0-52,51-146,16-23-9-27-44-27-44,0,0-60-546-66-583,0,0-9.88-81.08-9.39-130.08.23-22.88,18.21-41.58,41.06-42.75,41.98-2.14,103.64,8.75,145.33,31.83,31.04,17.18,107.87,56.93,135.93,281.45.04.36.1.72.17,1.07,1.97,10.73,32.95,185.72-9.1,340.48Z"/>
  <path d="M574.3,421.95s-1-23,22-31,489,0,489,0c0,0,21,3,27,14,0,0,6,11,4,31-2.59,25.89-25,256-25,256,0,0-1,24-17,29,0,0-36,15-56-17s-19-44-80-105c0,0-61-66-175-95,0,0-54-15-75,4-21.08,19.07-24,40-25,66-1.54,39.97,0,647,0,647,0,0,1,29,23,46,0,0,20,22,77,14,0,0,80-7,148-61,0,0,54-39,86-104,0,0,9-22,29-21s24,17,24,17c0,0,1,32-8,71,0,0-18,105-46,155s-118,58-118,58c0,0-158,7-266,2,0,0-22.96-2.55-35.16-21.76-1.88-2.97-2.85-6.43-2.88-9.94-.18-21.05-.96-87.3.04-129.3.62-26.01,0-815,0-815Z"/>
  <path d="M577.3,366.95s6-23,20-52c14.72-30.49,44.55-75.33,89-112,40-33,78-20,78-20,0,0,42,11,28,59-14.54,49.85-60,84-60,84,0,0-51,41-103,52s-56,4-52-11Z"/>
  <path d="M527.37,378.98c3.94,1.97,10.34,4.54,14.94,4.97,6.15.58,12.79-.59,17-6,7-9,1-35,1-35,0,0-46.66-211.36-147-307,0,0-80-76-121-7-46.19,77.74,69,206,69,206,0,0,121.76,119.03,166.06,144.03Z"/>
</svg>