<?xml version="1.0" encoding="UTF-8"?>
<svg id="Layer_2" data-name="Layer 2" xmlns="http://www.w3.org/2000/svg" viewBox="0 0 1010.02 1179.95">
  <g id="Layer_1-2" data-name="Layer 1">
    <path d="M480.96,378.31H16.96c-1.09,0-2.19.06-3.26.27-16.79,3.27-13.43,29.13-13.43,29.13l69.64,539.57,28.94,201.05c4.52,30.99,56.85,30.32,56.85,30.32l312.32-.13c.42,0,3.04-.03,3.46,0,3.02.19,16.37.79,25.32-6.36,9.95-7.95,9.95-25.01,9.95-25.01V397.93c0-1.71-.3-3.42-.96-5.03-5.98-14.59-24.86-14.59-24.86-14.59ZM404.57,978.27c-22.61,73.11-58.79,102.51-58.79,102.51,0,0-47.03,40.53-132.05,12.71-20.8-7.15-24.42-34.96-24.42-34.96,0,0-54.27-433.88-59.69-463.28,0,0-8.93-64.43-8.49-103.37.2-18.18,16.47-33.04,37.14-33.97,37.97-1.7,93.73,6.95,131.45,25.29,28.08,13.66,97.57,45.24,122.94,223.65.04.28.09.57.15.85,1.78,8.53,29.81,147.58-8.23,270.56Z"/>
    <path d="M519.43,402.94s-.9-18.28,19.9-24.63c20.8-6.36,442.28,0,442.28,0,0,0,18.99,2.38,24.42,11.13,0,0,5.43,8.74,3.62,24.63-2.34,20.57-22.61,203.43-22.61,203.43,0,0-.9,19.07-15.38,23.04,0,0-32.56,11.92-50.65-13.51-18.09-25.43-17.18-34.96-72.36-83.44,0,0-55.17-52.45-158.28-75.49,0,0-48.84-11.92-67.83,3.18-19.06,15.15-21.71,31.79-22.61,52.45-1.39,31.76,0,514.14,0,514.14,0,0,.9,23.04,20.8,36.55,0,0,18.09,17.48,69.64,11.13,0,0,72.36-5.56,133.86-48.47,0,0,48.84-30.99,77.78-82.64,0,0,8.14-17.48,26.23-16.69s21.71,13.51,21.71,13.51c0,0,.9,25.43-7.24,56.42,0,0-16.28,83.44-41.61,123.17-25.32,39.73-106.73,46.09-106.73,46.09,0,0-142.9,5.56-240.59,1.59,0,0-20.76-2.03-31.8-17.29-1.7-2.36-2.58-5.11-2.61-7.9-.16-16.73-.87-69.37.04-102.75.56-20.67,0-647.64,0-647.64Z"/>
    <path d="M520.96,346.24s6-21.64,20-48.92c14.72-28.68,44.55-70.88,89-105.37,40-31.05,78-18.82,78-18.82,0,0,42,10.35,28,55.51-14.54,46.9-60,79.03-60,79.03,0,0-51,38.57-103,48.92-52,10.35-56,3.76-52-10.35Z"/>
    <path d="M468.02,356.56c3.94,1.86,10.34,4.27,14.94,4.68,6.15.55,12.79-.56,17-5.65,7-8.47,1-32.93,1-32.93,0,0-46.66-198.86-147-288.84,0,0-80-71.5-121-6.59-46.19,73.14,69,193.81,69,193.81,0,0,121.76,111.99,166.06,135.51Z"/>
  </g>
</svg>